<?xml version="1.0" encoding="UTF-8"?>
<svg version="1.1" xmlns="http://www.w3.org/2000/svg" width="80" height="80">
<path d="M0 0 C1.20849609 0.0012085 1.20849609 0.0012085 2.44140625 0.00244141 C16.27009168 0.14509168 16.27009168 0.14509168 20.3125 4.1875 C21.5809375 4.6825 21.5809375 4.6825 22.875 5.1875 C25.3125 6.1875 25.3125 6.1875 26.3125 8.1875 C27.3025 9.0125 28.2925 9.8375 29.3125 10.6875 C32.3125 13.1875 32.3125 13.1875 33.3125 15.1875 C33.951875 15.93 34.59125 16.6725 35.25 17.4375 C41.82982026 26.21059368 40.98460073 38.74426816 40.3125 49.1875 C39.34562829 55.46505676 37.90358767 60.59641233 33.3125 65.1875 C32.77625 65.744375 32.24 66.30125 31.6875 66.875 C31.23375 67.308125 30.78 67.74125 30.3125 68.1875 C29.6525 68.8475 28.9925 69.5075 28.3125 70.1875 C26.65461215 71.53173339 24.98673683 72.86368483 23.3125 74.1875 C22.57 74.88875 21.8275 75.59 21.0625 76.3125 C11.79070799 82.63417637 -4.07427325 81.14706727 -14.6875 79.1875 C-17.5 77.6875 -17.5 77.6875 -19.6875 76.1875 C-20.3475 75.8575 -21.0075 75.5275 -21.6875 75.1875 C-22.83986214 74.03513786 -23.98965671 72.88007077 -25.125 71.7109375 C-26.94437985 69.93704215 -28.86882477 68.32390304 -30.8125 66.6875 C-36.53307771 61.67661802 -38.80474339 56.77523937 -39.6875 49.1875 C-40.91664323 27.30031011 -40.91664323 27.30031011 -36.1875 19.8125 C-35.6925 19.27625 -35.1975 18.74 -34.6875 18.1875 C-34.0275 17.1975 -33.3675 16.2075 -32.6875 15.1875 C-20.54464286 3.04464286 -20.54464286 3.04464286 -12.6875 1.1875 C-12.03934326 1.00920654 -11.39118652 0.83091309 -10.72338867 0.6472168 C-7.18208519 -0.15243238 -3.6163324 -0.00369315 0 0 Z " fill="#ED3F35" transform="translate(39.6875,-0.1875)"/>
<path d="M0 0 C2.23071869 1.78777694 3.37427004 3.58603733 5 6 C10.08397567 7.69465856 15.09310696 7.87399264 20 5.625 C22.09716677 4.14913969 22.09716677 4.14913969 23 2 C29.61085476 2.48969295 34.94977014 4.33442742 41 7 C38.29354027 18.58554692 32.14835609 26.91124065 21.9921875 33.25390625 C12.61683202 38.23571279 2.70188968 39.40479427 -7.61328125 36.8125 C-19.05164669 32.91858836 -27.32223004 25.79200081 -33.08984375 15.2734375 C-34.18227329 12.54470793 -34.60466651 9.90466077 -35 7 C-9.31541604 -1.97248133 -9.31541604 -1.97248133 0 0 Z " fill="#FDFDFD" transform="translate(37,41)"/>
<path d="M0 0 C1.20849609 0.0012085 1.20849609 0.0012085 2.44140625 0.00244141 C16.27009168 0.14509168 16.27009168 0.14509168 20.3125 4.1875 C21.5809375 4.6825 21.5809375 4.6825 22.875 5.1875 C25.3125 6.1875 25.3125 6.1875 26.3125 8.1875 C27.3025 9.0125 28.2925 9.8375 29.3125 10.6875 C32.3125 13.1875 32.3125 13.1875 33.3125 15.1875 C33.951875 15.93 34.59125 16.6725 35.25 17.4375 C41.82982026 26.21059368 40.98460073 38.74426816 40.3125 49.1875 C39.34562829 55.46505676 37.90358767 60.59641233 33.3125 65.1875 C32.77625 65.744375 32.24 66.30125 31.6875 66.875 C31.23375 67.308125 30.78 67.74125 30.3125 68.1875 C29.6525 68.8475 28.9925 69.5075 28.3125 70.1875 C26.65461215 71.53173339 24.98673683 72.86368483 23.3125 74.1875 C22.57 74.88875 21.8275 75.59 21.0625 76.3125 C11.79070799 82.63417637 -4.07427325 81.14706727 -14.6875 79.1875 C-17.5 77.6875 -17.5 77.6875 -19.6875 76.1875 C-20.3475 75.8575 -21.0075 75.5275 -21.6875 75.1875 C-22.83986214 74.03513786 -23.98965671 72.88007077 -25.125 71.7109375 C-26.94437985 69.93704215 -28.86882477 68.32390304 -30.8125 66.6875 C-36.53307771 61.67661802 -38.80474339 56.77523937 -39.6875 49.1875 C-40.91664323 27.30031011 -40.91664323 27.30031011 -36.1875 19.8125 C-35.6925 19.27625 -35.1975 18.74 -34.6875 18.1875 C-34.0275 17.1975 -33.3675 16.2075 -32.6875 15.1875 C-20.54464286 3.04464286 -20.54464286 3.04464286 -12.6875 1.1875 C-12.03934326 1.00920654 -11.39118652 0.83091309 -10.72338867 0.6472168 C-7.18208519 -0.15243238 -3.6163324 -0.00369315 0 0 Z M-29.7265625 14.4765625 C-35.24719458 21.87655869 -39.02892758 29.84604139 -38.6875 39.1875 C-37.59695312 38.78917969 -36.50640625 38.39085937 -35.3828125 37.98046875 C-26.50590786 34.8351792 -18.0290431 32.35311823 -8.61572266 31.47729492 C-4.58489981 30.98922707 -2.36918342 30.2846612 0.13671875 27.15625 C0.85472656 26.1765625 1.57273438 25.196875 2.3125 24.1875 C7.34200475 22.51099842 12.34041589 22.34831527 17.25 24.4375 C19.37327857 26.23906969 20.3320412 27.60265408 21.3125 30.1875 C20.3225 30.8475 19.3325 31.5075 18.3125 32.1875 C17.8175 31.3625 17.3225 30.5375 16.8125 29.6875 C14.14684657 27.02184657 13.77834742 26.79146604 10.25 26.6875 C6.42836849 26.84307665 6.42836849 26.84307665 4.3125 28.6875 C3.9825 29.1825 3.6525 29.6775 3.3125 30.1875 C3.6425 30.5175 3.9725 30.8475 4.3125 31.1875 C3.3225 31.5175 2.3325 31.8475 1.3125 32.1875 C0.89169166 37.15035992 0.89169166 37.15035992 2.875 41.5625 C5.9910229 43.6398486 8.61713414 43.90324109 12.3125 44.1875 C11.9825 45.5075 11.6525 46.8275 11.3125 48.1875 C8.21318411 48.17399536 5.31229996 47.9986704 2.3125 47.1875 C1.508125 46.176875 0.70375 45.16625 -0.125 44.125 C-2.28052064 41.11041653 -2.28052064 41.11041653 -4.61328125 40.65234375 C-15.69144883 40.22411206 -27.49461052 44.190513 -37.6875 48.1875 C-35.71805466 59.01944936 -29.57276489 66.81509909 -20.6875 73.1875 C-15.34138802 76.17983768 -9.86838329 78.78439892 -3.6875 79.1875 C-3.02492187 79.23777344 -2.36234375 79.28804688 -1.6796875 79.33984375 C9.37610629 79.82136787 18.78226279 75.37103459 27.3203125 68.59375 C34.1006224 62.37112792 38.70522345 53.08373164 39.6484375 43.92578125 C39.76981178 33.28125666 37.85312071 24.77206468 31.3125 16.1875 C30.41917969 14.9809375 30.41917969 14.9809375 29.5078125 13.75 C22.90554642 6.0434403 13.11957351 1.86735753 3.18359375 0.875 C-9.54659915 0.3940482 -21.14843962 4.84671574 -29.7265625 14.4765625 Z " fill="#4F4E4F" transform="translate(39.6875,-0.1875)"/>
<path d="M0 0 C0.32871094 0.7734375 0.65742188 1.546875 0.99609375 2.34375 C5.2380394 11.63234643 10.29079056 18.03446459 19.625 22.5 C29.22631801 25.84478264 39.42531507 24.8986064 48.73046875 21.16796875 C51.03587609 19.98153709 52.9806317 18.62013686 55 17 C55.66 17.33 56.32 17.66 57 18 C49.19672204 26.80943128 39.79625013 33.19097396 27.82421875 34.1796875 C16.79447576 34.52258106 7.31498527 31.09273006 -1.30078125 24.14453125 C-7.4157956 18.37499794 -12.33847308 11.59984994 -13 3 C-8.36224637 1.11345615 -5.04994191 -0.21225675 0 0 Z " fill="#A09E9E" transform="translate(15,45)"/>
<path d="M0 0 C1.94140625 0.40234375 1.94140625 0.40234375 4.44140625 2.90234375 C5.18390625 4.13984375 5.18390625 4.13984375 5.94140625 5.40234375 C6.93140625 4.74234375 7.92140625 4.08234375 8.94140625 3.40234375 C8.94140625 4.06234375 8.94140625 4.72234375 8.94140625 5.40234375 C9.79412109 5.56669922 9.79412109 5.56669922 10.6640625 5.734375 C15.76457383 6.78172541 20.22584825 8.19506128 24.94140625 10.40234375 C24.94140625 11.06234375 24.94140625 11.72234375 24.94140625 12.40234375 C25.60140625 12.40234375 26.26140625 12.40234375 26.94140625 12.40234375 C26.94140625 15.04234375 26.94140625 17.68234375 26.94140625 20.40234375 C20.36605764 19.78202784 14.27448033 18.25337092 7.94140625 16.40234375 C7.66296875 17.03527344 7.38453125 17.66820313 7.09765625 18.3203125 C5.94140625 20.40234375 5.94140625 20.40234375 3.44140625 21.71484375 C0.94140625 22.40234375 0.94140625 22.40234375 -1.05859375 21.40234375 C-0.72859375 20.08234375 -0.39859375 18.76234375 -0.05859375 17.40234375 C-1.13109375 17.31984375 -2.20359375 17.23734375 -3.30859375 17.15234375 C-7.05859375 16.40234375 -7.05859375 16.40234375 -9.49609375 14.77734375 C-11.61061145 11.56327684 -11.34819273 9.1671305 -11.05859375 5.40234375 C-9.73859375 5.07234375 -8.41859375 4.74234375 -7.05859375 4.40234375 C-7.71859375 3.74234375 -8.37859375 3.08234375 -9.05859375 2.40234375 C-5.84395657 0.2592523 -3.82797493 -0.0634471 0 0 Z " fill="#515052" transform="translate(52.05859375,26.59765625)"/>
<path d="M0 0 C1.20849609 0.0012085 1.20849609 0.0012085 2.44140625 0.00244141 C16.27009168 0.14509168 16.27009168 0.14509168 20.3125 4.1875 C21.5809375 4.6825 21.5809375 4.6825 22.875 5.1875 C25.3125 6.1875 25.3125 6.1875 26.3125 8.1875 C27.3025 9.0125 28.2925 9.8375 29.3125 10.6875 C32.3125 13.1875 32.3125 13.1875 33.3125 15.1875 C33.951875 15.93 34.59125 16.6725 35.25 17.4375 C41.82982026 26.21059368 40.98460073 38.74426816 40.3125 49.1875 C39.34562829 55.46505676 37.90358767 60.59641233 33.3125 65.1875 C32.77625 65.744375 32.24 66.30125 31.6875 66.875 C31.23375 67.308125 30.78 67.74125 30.3125 68.1875 C29.6525 68.8475 28.9925 69.5075 28.3125 70.1875 C26.65461215 71.53173339 24.98673683 72.86368483 23.3125 74.1875 C22.57 74.88875 21.8275 75.59 21.0625 76.3125 C11.79070799 82.63417637 -4.07427325 81.14706727 -14.6875 79.1875 C-17.5 77.6875 -17.5 77.6875 -19.6875 76.1875 C-20.3475 75.8575 -21.0075 75.5275 -21.6875 75.1875 C-22.83986214 74.03513786 -23.98965671 72.88007077 -25.125 71.7109375 C-26.94437985 69.93704215 -28.86882477 68.32390304 -30.8125 66.6875 C-36.53307771 61.67661802 -38.80474339 56.77523937 -39.6875 49.1875 C-40.91664323 27.30031011 -40.91664323 27.30031011 -36.1875 19.8125 C-35.6925 19.27625 -35.1975 18.74 -34.6875 18.1875 C-34.0275 17.1975 -33.3675 16.2075 -32.6875 15.1875 C-20.54464286 3.04464286 -20.54464286 3.04464286 -12.6875 1.1875 C-12.03934326 1.00920654 -11.39118652 0.83091309 -10.72338867 0.6472168 C-7.18208519 -0.15243238 -3.6163324 -0.00369315 0 0 Z M-29.7265625 14.4765625 C-37.29938 24.62736042 -39.89837954 34.58538336 -38.6875 47.1875 C-36.69403127 58.04449084 -29.49185421 66.87312721 -20.6875 73.1875 C-15.34138802 76.17983768 -9.86838329 78.78439892 -3.6875 79.1875 C-3.02492187 79.23777344 -2.36234375 79.28804688 -1.6796875 79.33984375 C9.37610629 79.82136787 18.78226279 75.37103459 27.3203125 68.59375 C34.1006224 62.37112792 38.70522345 53.08373164 39.6484375 43.92578125 C39.76981178 33.28125666 37.85312071 24.77206468 31.3125 16.1875 C30.41917969 14.9809375 30.41917969 14.9809375 29.5078125 13.75 C22.90554642 6.0434403 13.11957351 1.86735753 3.18359375 0.875 C-9.54659915 0.3940482 -21.14843962 4.84671574 -29.7265625 14.4765625 Z " fill="#1B1919" transform="translate(39.6875,-0.1875)"/>
<path d="M0 0 C2 2 2 2 2.3125 5.3125 C1.97097189 9.34253167 1.63014902 10.95889019 -1 14 C-4.70237959 16.57450236 -7.7681667 18 -12.3125 18 C-15.49974919 16.81404681 -16.57859986 16.09363559 -18 13 C-18 8.88253438 -17.31257087 7.35264405 -14.5625 4.25 C-13.2940625 3.13625 -13.2940625 3.13625 -12 2 C-11.34 1.34 -10.68 0.68 -10 0 C-6.49828227 -1.37567482 -3.60475414 -0.86200642 0 0 Z " fill="#FDF9F8" transform="translate(27,8)"/>
<path d="M0 0 C3.2883921 2.71292348 3.90851499 4.34816929 4.5 8.5625 C4 12 4 12 2.4375 14.375 C-0.76354773 16.50903182 -3.17515054 16.86339823 -7 17 C-10.39808026 15.89791992 -10.94731917 15.07902124 -13 12 C-13.07905064 9.66800612 -13.08798769 7.33167378 -13 5 C-11.68 4.67 -10.36 4.34 -9 4 C-9.66 3.34 -10.32 2.68 -11 2 C-7.33000925 -0.4466605 -4.26464882 -0.8237551 0 0 Z " fill="#E1E0E1" transform="translate(54,27)"/>
<path d="M0 0 C3.5 0.25 3.5 0.25 5.5 2.25 C5.76991906 4.93839385 5.58737357 7.54141936 5.5 10.25 C-1.87796976 11.58045356 -1.87796976 11.58045356 -4.5 10.1875 C-5.92932497 7.41818287 -5.82618658 5.31615383 -5.5 2.25 C-3.5 0.25 -3.5 0.25 0 0 Z " fill="#FBFBFB" transform="translate(49.5,29.75)"/>
<path d="M0 0 C4.80436782 -0.38434943 8.09024857 -0.47968712 12.4375 1.8125 C15 4 15 4 17 7 C16.67 7.99 16.34 8.98 16 10 C15.67 9.67 15.34 9.34 15 9 C14.67 11.64 14.34 14.28 14 17 C13.67 17 13.34 17 13 17 C12.90203125 16.39671875 12.8040625 15.7934375 12.703125 15.171875 C11.79053096 10.29421718 11.12404277 7.16176612 7 4 C7.33 3.01 7.66 2.02 8 1 C5.36 1 2.72 1 0 1 C0 0.67 0 0.34 0 0 Z " fill="#424142" transform="translate(45,22)"/>
<path d="M0 0 C0.66 0 1.32 0 2 0 C2.433125 0.804375 2.86625 1.60875 3.3125 2.4375 C4.76787059 5.24282331 4.76787059 5.24282331 7.6875 5.8125 C8.8321875 5.9053125 8.8321875 5.9053125 10 6 C7.28527098 8.71472902 4.69347931 9.14258516 1 10 C0.34 9.67 -0.32 9.34 -1 9 C-1.09765625 2.84765625 -1.09765625 2.84765625 -1 1 C-0.67 0.67 -0.34 0.34 0 0 Z " fill="#343435" transform="translate(2,38)"/>
<path d="M0 0 C5.875 4.75 5.875 4.75 7 7 C7.639375 7.7425 8.27875 8.485 8.9375 9.25 C11.41428197 12.55237597 13 15.80770512 13 20 C12.34 20 11.68 20 11 20 C10.62488281 19.27554687 10.24976562 18.55109375 9.86328125 17.8046875 C6.48293446 11.3271768 6.48293446 11.3271768 2.125 5.5 C0 3 0 3 0 0 Z " fill="#101011" transform="translate(66,8)"/>
<path d="M0 0 C0.66 0 1.32 0 2 0 C2.33 2.97 2.66 5.94 3 9 C5.97 9 8.94 9 12 9 C11.67 9.66 11.34 10.32 11 11 C4.00790514 12.60474308 4.00790514 12.60474308 0.5 10.5 C-1.49403694 7.17660511 -1.3592276 4.80781256 -1 1 C-0.67 0.67 -0.34 0.34 0 0 Z " fill="#B8B8B8" transform="translate(42,31)"/>
<path d="M0 0 C0.33 1.65 0.66 3.3 1 5 C0.34 4.67 -0.32 4.34 -1 4 C-2.70363822 3.77377919 -4.41328701 3.59111527 -6.125 3.4375 C-7.03507812 3.35371094 -7.94515625 3.26992188 -8.8828125 3.18359375 C-9.58148438 3.12300781 -10.28015625 3.06242187 -11 3 C-7.65817252 -1.0165182 -4.96805907 -0.24433077 0 0 Z " fill="#C8C6C7" transform="translate(54,27)"/>
<path d="M0 0 C2.30874711 2.16614803 4.05290181 4.39206608 5.75 7.0625 C6.19859375 7.75472656 6.6471875 8.44695313 7.109375 9.16015625 C7.40328125 9.76730469 7.6971875 10.37445313 8 11 C7.67 11.66 7.34 12.32 7 13 C2.80186938 9.25572134 0.92223883 6.1596937 -1 1 C-0.67 0.67 -0.34 0.34 0 0 Z " fill="#121011" transform="translate(2,53)"/>
<path d="M0 0 C6.40141012 -0.51211281 9.98010898 -0.11888494 15 4 C14.67 4.66 14.34 5.32 14 6 C13.401875 5.67 12.80375 5.34 12.1875 5 C9.94613529 3.79212012 9.94613529 3.79212012 7 4 C7.33 3.01 7.66 2.02 8 1 C5.36 1 2.72 1 0 1 C0 0.67 0 0.34 0 0 Z " fill="#322F31" transform="translate(45,22)"/>
<path d="M0 0 C0.66 0.33 1.32 0.66 2 1 C1.49701212 5.40114397 -0.08772731 7.71195019 -3 11 C-3.66 10.34 -4.32 9.68 -5 9 C-3.35 6.03 -1.7 3.06 0 0 Z " fill="#0E0C0D" transform="translate(76,54)"/>
<path d="M0 0 C2.64 0 5.28 0 8 0 C7.67 1.32 7.34 2.64 7 4 C4.03 3.505 4.03 3.505 1 3 C0.67 2.01 0.34 1.02 0 0 Z " fill="#575658" transform="translate(45,23)"/>
<path d="M0 0 C0.99 0.33 1.98 0.66 3 1 C2.34 1 1.68 1 1 1 C0.731875 1.61875 0.46375 2.2375 0.1875 2.875 C-1 5 -1 5 -4 7 C-3.43628586 3.73045798 -2.50037734 2.17424117 0 0 Z " fill="#3F4042" transform="translate(42,23)"/>
<path d="" fill="#0B0B0B" transform="translate(0,0)"/>
<path d="" fill="#000000" transform="translate(0,0)"/>
<path d="" fill="#000000" transform="translate(0,0)"/>
<path d="" fill="#000000" transform="translate(0,0)"/>
<path d="" fill="#0B0B0B" transform="translate(0,0)"/>
<path d="" fill="#0B0B0B" transform="translate(0,0)"/>
<path d="" fill="#0B0B0B" transform="translate(0,0)"/>
<path d="" fill="#000000" transform="translate(0,0)"/>
<path d="" fill="#0B0B0B" transform="translate(0,0)"/>
<path d="" fill="#0B0B0B" transform="translate(0,0)"/>
<path d="" fill="#0B0B0B" transform="translate(0,0)"/>
<path d="" fill="#0B0B0B" transform="translate(0,0)"/>
<path d="" fill="#0B0B0B" transform="translate(0,0)"/>
<path d="" fill="#0B0B0B" transform="translate(0,0)"/>
<path d="" fill="#000000" transform="translate(0,0)"/>
<path d="" fill="#000000" transform="translate(0,0)"/>
<path d="" fill="#000000" transform="translate(0,0)"/>
<path d="" fill="#0B0B0B" transform="translate(0,0)"/>
<path d="" fill="#0B0B0B" transform="translate(0,0)"/>
<path d="" fill="#000000" transform="translate(0,0)"/>
<path d="" fill="#0B0B0B" transform="translate(0,0)"/>
<path d="" fill="#0B0B0B" transform="translate(0,0)"/>
<path d="" fill="#000000" transform="translate(0,0)"/>
<path d="" fill="#000000" transform="translate(0,0)"/>
</svg>
